{
  "accessors": [
    {
      "bufferView": 2,
      "componentType": 5126,
      "count": 5416,
      "max": [
        42.400077819824219,
        2.5714290142059326,
        100
      ],
      "min": [
        -42.400077819824219,
        -5.9285712242126465,
        -0
      ],
      "type": "VEC3"
    },
    {
      "bufferView": 2,
      "byteOffset": 64992,
      "componentType": 5126,
      "count": 5416,
      "max": [
        1,
        1,
        1
      ],
      "min": [
        -1,
        -1,
        -1
      ],
      "type": "VEC3"
    },
    {
      "bufferView": 3,
      "componentType": 5126,
      "count": 5416,
      "max": [
        1,
        1,
        1,
        1
      ],
      "min": [
        -1,
        -1,
        -1,
        -1
      ],
      "type": "VEC4"
    },
    {
      "bufferView": 1,
      "componentType": 5126,
      "count": 5416,
      "max": [
        0.99854099750518799,
        0.99142998456954956
      ],
      "min": [
        0.0014590000500902534,
        0.0014590000500902534
      ],
      "type": "VEC2"
    },
    {
      "bufferView": 0,
      "componentType": 5125,
      "count": 16116,
      "max": [
        5415
      ],
      "min": [
        0
      ],
      "type": "SCALAR"
    },
    {
      "bufferView": 2,
      "byteOffset": 129984,
      "componentType": 5126,
      "count": 48,
      "max": [
        23.709846496582031,
        1.3714289665222168,
        81.029838562011719
      ],
      "min": [
        -24.013351440429688,
        1.3714289665222168,
        16.281909942626953
      ],
      "type": "VEC3"
    },
    {
      "bufferView": 2,
      "byteOffset": 130560,
      "componentType": 5126,
      "count": 48,
      "max": [
        0,
        -1,
        0
      ],
      "min": [
        0,
        -1,
        0
      ],
      "type": "VEC3"
    },
    {
      "bufferView": 3,
      "byteOffset": 86656,
      "componentType": 5126,
      "count": 48,
      "max": [
        -0.99999994039535522,
        0,
        0.00036207574885338545,
        1
      ],
      "min": [
        -1,
        0,
        0.00031087742536328733,
        1
      ],
      "type": "VEC4"
    },
    {
      "bufferView": 1,
      "byteOffset": 43328,
      "componentType": 5126,
      "count": 48,
      "max": [
        0.73192501068115234,
        0.99294799566268921
      ],
      "min": [
        0.0052649998106062412,
        0.0070520001463592052
      ],
      "type": "VEC2"
    },
    {
      "bufferView": 0,
      "byteOffset": 64464,
      "componentType": 5125,
      "count": 138,
      "max": [
        47
      ],
      "min": [
        0
      ],
      "type": "SCALAR"
    },
    {
      "bufferView": 2,
      "byteOffset": 131136,
      "componentType": 5126,
      "count": 19152,
      "max": [
        35.794052124023438,
        1.6866580247879028,
        91.484756469726562
      ],
      "min": [
        -35.794052124023438,
        -0.28436499834060669,
        1.2717070579528809
      ],
      "type": "VEC3"
    },
    {
      "bufferView": 2,
      "byteOffset": 360960,
      "componentType": 5126,
      "count": 19152,
      "max": [
        1,
        1,
        1
      ],
      "min": [
        -0.99997013807296753,
        -1,
        -1
      ],
      "type": "VEC3"
    },
    {
      "bufferView": 3,
      "byteOffset": 87424,
      "componentType": 5126,
      "count": 19152,
      "max": [
        1,
        1,
        0.99999982118606567,
        1
      ],
      "min": [
        -1,
        -1,
        -1,
        -1
      ],
      "type": "VEC4"
    },
    {
      "bufferView": 1,
      "byteOffset": 43712,
      "componentType": 5126,
      "count": 19152,
      "max": [
        0.98505699634552002,
        0.98273897171020508
      ],
      "min": [
        0,
        0
      ],
      "type": "VEC2"
    },
    {
      "bufferView": 0,
      "byteOffset": 65016,
      "componentType": 5125,
      "count": 50622,
      "max": [
        19151
      ],
      "min": [
        0
      ],
      "type": "SCALAR"
    }
  ],
  "asset": {
    "extras": {
      "author": "Interiors3D (https://sketchfab.com/Interiors3D)",
      "license": "CC-BY-4.0 (http://creativecommons.org/licenses/by/4.0/)",
      "source": "https://sketchfab.com/3d-models/pjvz00-4cd19f25000a475caecf344463225a1b",
      "title": "PJVZ00"
    },
    "generator": "Sketchfab-7.27.0",
    "version": "2.0"
  },
  "bufferViews": [
    {
      "buffer": 0,
      "byteLength": 267504,
      "byteOffset": 0,
      "name": "floatBufferViews",
      "target": 34963
    },
    {
      "buffer": 0,
      "byteLength": 196928,
      "byteOffset": 267504,
      "byteStride": 8,
      "name": "floatBufferViews",
      "target": 34962
    },
    {
      "buffer": 0,
      "byteLength": 590784,
      "byteOffset": 464432,
      "byteStride": 12,
      "name": "floatBufferViews",
      "target": 34962
    },
    {
      "buffer": 0,
      "byteLength": 393856,
      "byteOffset": 1055216,
      "byteStride": 16,
      "name": "floatBufferViews",
      "target": 34962
    }
  ],
  "buffers": [
    {
      "byteLength": 1449072,
      "uri": "scene.bin"
    }
  ],
  "images": [
    {
      "uri": "textures/PJVZ_-_Wood_baseColor.jpeg"
    },
    {
      "uri": "textures/PJVZ_-_Wood_metallicRoughness.png"
    },
    {
      "uri": "textures/PJVZ_-_Wood_normal.png"
    },
    {
      "uri": "textures/PJVZ_mirror_metallicRoughness.png"
    },
    {
      "uri": "textures/PJVZ_ornament_baseColor.jpeg"
    },
    {
      "uri": "textures/PJVZ_ornament_metallicRoughness.png"
    },
    {
      "uri": "textures/PJVZ_ornament_normal.png"
    }
  ],
  "materials": [
    {
      "doubleSided": true,
      "emissiveFactor": [
        0,
        0,
        0
      ],
      "name": "PJVZ_-_Wood",
      "normalTexture": {
        "index": 2,
        "scale": 1,
        "texCoord": 0
      },
      "pbrMetallicRoughness": {
        "baseColorFactor": [
          1,
          1,
          1,
          1
        ],
        "baseColorTexture": {
          "index": 0,
          "texCoord": 0
        },
        "metallicFactor": 0,
        "metallicRoughnessTexture": {
          "index": 1,
          "texCoord": 0
        },
        "roughnessFactor": 1
      }
    },
    {
      "doubleSided": true,
      "emissiveFactor": [
        0,
        0,
        0
      ],
      "name": "PJVZ_mirror",
      "pbrMetallicRoughness": {
        "baseColorFactor": [
          0.046559472231579496,
          0.046559472231579496,
          0.046559472231579496,
          1
        ],
        "metallicFactor": 0,
        "metallicRoughnessTexture": {
          "index": 3,
          "texCoord": 0
        },
        "roughnessFactor": 0.22122713414634146
      }
    },
    {
      "doubleSided": true,
      "emissiveFactor": [
        0,
        0,
        0
      ],
      "name": "PJVZ_ornament",
      "normalTexture": {
        "index": 6,
        "scale": 1,
        "texCoord": 0
      },
      "pbrMetallicRoughness": {
        "baseColorFactor": [
          1,
          1,
          1,
          1
        ],
        "baseColorTexture": {
          "index": 4,
          "texCoord": 0
        },
        "metallicFactor": 0,
        "metallicRoughnessTexture": {
          "index": 5,
          "texCoord": 0
        },
        "roughnessFactor": 1
      }
    }
  ],
  "meshes": [
    {
      "primitives": [
        {
          "attributes": {
            "NORMAL": 1,
            "POSITION": 0,
            "TANGENT": 2,
            "TEXCOORD_0": 3
          },
          "indices": 4,
          "material": 0,
          "mode": 4
        }
      ]
    },
    {
      "primitives": [
        {
          "attributes": {
            "NORMAL": 6,
            "POSITION": 5,
            "TANGENT": 7,
            "TEXCOORD_0": 8
          },
          "indices": 9,
          "material": 1,
          "mode": 4
        }
      ]
    },
    {
      "primitives": [
        {
          "attributes": {
            "NORMAL": 11,
            "POSITION": 10,
            "TANGENT": 12,
            "TEXCOORD_0": 13
          },
          "indices": 14,
          "material": 2,
          "mode": 4
        }
      ]
    }
  ],
  "nodes": [
    {
      "children": [
        1
      ],
      "name": "RootNode (gltf orientation matrix)",
      "rotation": [
        -0.70710678118654746,
        -0,
        -0,
        0.70710678118654757
      ]
    },
    {
      "children": [
        2
      ],
      "name": "RootNode (model correction matrix)"
    },
    {
      "children": [
        3,
        4,
        5
      ],
      "name": "W50 - PJVZ - Sketchfab - mesh.obj.cleaner.materialmerger.gles"
    },
    {
      "mesh": 0,
      "name": ""
    },
    {
      "mesh": 1,
      "name": ""
    },
    {
      "mesh": 2,
      "name": ""
    }
  ],
  "samplers": [
    {
      "magFilter": 9729,
      "minFilter": 9987,
      "wrapS": 10497,
      "wrapT": 10497
    }
  ],
  "scene": 0,
  "scenes": [
    {
      "name": "OSG_Scene",
      "nodes": [
        0
      ]
    }
  ],
  "textures": [
    {
      "sampler": 0,
      "source": 0
    },
    {
      "sampler": 0,
      "source": 1
    },
    {
      "sampler": 0,
      "source": 2
    },
    {
      "sampler": 0,
      "source": 3
    },
    {
      "sampler": 0,
      "source": 4
    },
    {
      "sampler": 0,
      "source": 5
    },
    {
      "sampler": 0,
      "source": 6
    }
  ]
}

